<?xml version="1.0" encoding="UTF-8"?>
<svg width="170px" height="53px" viewBox="0 0 170 53" version="1.1" xmlns="http://www.w3.org/2000/svg" xmlns:xlink="http://www.w3.org/1999/xlink">
    <title>appleappstore</title>
    <g id="Page-1" stroke="none" stroke-width="1" fill="none" fill-rule="evenodd">
        <g id="셀러어드민/진입/정보입력/쇼핑몰-정보-입력-copy" transform="translate(-99.000000, -431.000000)">
            <g id="appleappstore" transform="translate(99.000000, 431.971910)">
                <g id="Group-7" transform="translate(0.000000, 0.028090)">
                    <rect id="Rectangle-9" stroke-opacity="0.8" stroke="#FFFFFF" fill="#000000" opacity="0.95" x="1.2425573" y="0.5" width="168.212963" height="49.3770632" rx="9"></rect>
                    <path d="M54.8155583,18.9393587 L54.8155583,10.3934028 L57.310456,10.3934028 C59.8053537,10.3934028 61.1818489,11.7159912 61.1818489,14.424754 L61.1818489,14.679098 C61.1818489,17.336992 59.9897057,18.9393587 57.3350363,18.9393587 L54.8155583,18.9393587 Z M55.8970903,17.9728518 L57.3596165,17.9728518 C59.1908468,17.9728518 60.014286,17.0317793 60.014286,14.8444215 L60.014286,14.424754 C60.014286,12.1102243 58.9942047,11.3726269 57.1998448,11.3726269 L55.8970903,11.3726269 L55.8970903,17.9728518 Z M64.5452496,19.0538135 C62.7877601,19.0538135 61.7676787,17.8838314 61.7676787,15.912666 L61.7676787,15.6964737 C61.7676787,13.712591 62.8860812,12.4917402 64.5575397,12.4917402 C66.302739,12.4917402 67.3474006,13.6744395 67.3474006,15.6583221 L67.3474006,15.8617972 C67.3474006,17.8456799 66.2167081,19.0538135 64.5452496,19.0538135 Z M64.5698298,18.1636098 C65.6390717,18.1636098 66.2535785,17.3878608 66.2535785,15.976252 L66.2535785,15.6328877 C66.2535785,13.9287834 65.4792999,13.3819439 64.5329594,13.3819439 C63.4637176,13.3819439 62.8492107,14.1704101 62.8492107,15.5820189 L62.8492107,15.9381004 C62.8492107,17.6422047 63.6234893,18.1636098 64.5698298,18.1636098 Z M69.3834665,18.9393587 L67.6505573,12.6189122 L68.7689597,12.6189122 L69.9733931,17.5531843 L70.0102635,17.5531843 L71.4236292,12.6189122 L72.3330992,12.6189122 L73.7587551,17.5531843 L73.8079156,17.5531843 L75.0000588,12.6189122 L76.00785,12.6189122 L74.2749408,18.9393587 L73.2302792,18.9393587 L71.8660741,14.2848649 L71.8169135,14.2848649 L70.4527084,18.9393587 L69.3834665,18.9393587 Z M76.7042911,18.9393587 L76.7042911,12.6189122 L77.6997921,12.6189122 L77.6997921,13.1657516 L77.7612428,13.1657516 C78.2774285,12.7842357 79.0639972,12.4917402 79.8136955,12.4917402 C81.0181289,12.4917402 81.5834752,13.0131452 81.5834752,14.2339961 L81.5834752,18.9393587 L80.5511037,18.9393587 L80.5511037,14.4629056 C80.5511037,13.7380254 80.3175911,13.4328127 79.3589605,13.4328127 C78.8181945,13.4328127 78.1913975,13.6362879 77.7489526,13.8524802 L77.7489526,18.9393587 L76.7042911,18.9393587 Z M82.8329723,18.9393587 L82.8329723,9.83384615 L83.8899241,9.83384615 L83.8899241,18.9393587 L82.8329723,18.9393587 Z M87.5851584,19.0538135 C85.8276689,19.0538135 84.8075876,17.8838314 84.8075876,15.912666 L84.8075876,15.6964737 C84.8075876,13.712591 85.92599,12.4917402 87.5974485,12.4917402 C89.3426479,12.4917402 90.3873095,13.6744395 90.3873095,15.6583221 L90.3873095,15.8617972 C90.3873095,17.8456799 89.2566169,19.0538135 87.5851584,19.0538135 Z M87.6097386,18.1636098 C88.6789805,18.1636098 89.2934873,17.3878608 89.2934873,15.976252 L89.2934873,15.6328877 C89.2934873,13.9287834 88.5192087,13.3819439 87.5728682,13.3819439 C86.5036264,13.3819439 85.8891196,14.1704101 85.8891196,15.5820189 L85.8891196,15.9381004 C85.8891196,17.6422047 86.6633982,18.1636098 87.6097386,18.1636098 Z M92.755209,19.0538135 C91.6613869,19.0538135 90.862528,18.4815397 90.862528,17.2606888 C90.862528,16.1670099 91.5507757,15.5693017 92.7060485,15.4166954 L94.3283465,15.2132202 L94.3283465,14.6282292 C94.3283465,13.6617223 93.922772,13.4328127 92.8289499,13.4328127 C92.2267332,13.4328127 91.7351277,13.5345503 91.3664236,13.6108535 L91.3664236,12.8351045 C91.9194798,12.6189122 92.4971162,12.4917402 93.2345244,12.4917402 C94.5864393,12.4917402 95.3607179,13.0894484 95.3607179,14.3611681 L95.3607179,18.9393587 L94.5249887,18.9393587 L94.4143774,18.4052365 L94.3529268,18.4052365 C94.0456734,18.761318 93.566358,19.0538135 92.755209,19.0538135 Z M93.0133019,18.2144785 C93.5540679,18.2144785 94.0579635,18.0364378 94.3283465,17.7820939 L94.3283465,16.039838 L92.9764315,16.1797271 C92.2758937,16.2560303 91.94406,16.5485258 91.94406,17.2352544 C91.94406,17.8965486 92.3742148,18.2144785 93.0133019,18.2144785 Z M98.7486988,19.0538135 C97.5811359,19.0538135 96.2292209,18.3034989 96.2292209,15.976252 L96.2292209,15.7982112 C96.2292209,13.4963987 97.3844937,12.4917402 98.945341,12.4917402 C99.6950393,12.4917402 100.186645,12.6952153 100.506188,12.8859733 L100.506188,9.83384615 L101.55085,9.83384615 L101.55085,18.9393587 L100.66596,18.9393587 L100.567639,18.4306709 L100.506188,18.4306709 C100.149774,18.7994696 99.5598478,19.0538135 98.7486988,19.0538135 Z M99.0928227,18.1636098 C99.7687801,18.1636098 100.248095,17.8838314 100.506188,17.6676391 L100.506188,13.7888942 C100.248095,13.5727019 99.6950393,13.4200955 99.0805325,13.4200955 C97.9621301,13.4200955 97.323043,14.0050866 97.323043,15.6583221 L97.323043,15.9381004 C97.323043,17.6422047 98.0358709,18.1636098 99.0928227,18.1636098 Z M108.031848,19.0538135 C106.274359,19.0538135 105.254278,17.8838314 105.254278,15.912666 L105.254278,15.6964737 C105.254278,13.712591 106.37268,12.4917402 108.044139,12.4917402 C109.789338,12.4917402 110.834,13.6744395 110.834,15.6583221 L110.834,15.8617972 C110.834,17.8456799 109.703307,19.0538135 108.031848,19.0538135 Z M108.056429,18.1636098 C109.125671,18.1636098 109.740177,17.3878608 109.740177,15.976252 L109.740177,15.6328877 C109.740177,13.9287834 108.965899,13.3819439 108.019558,13.3819439 C106.950316,13.3819439 106.33581,14.1704101 106.33581,15.5820189 L106.33581,15.9381004 C106.33581,17.6422047 107.110088,18.1636098 108.056429,18.1636098 Z M111.702502,18.9393587 L111.702502,12.6189122 L112.698004,12.6189122 L112.698004,13.1657516 L112.759454,13.1657516 C113.27564,12.7842357 114.062209,12.4917402 114.811907,12.4917402 C116.01634,12.4917402 116.581687,13.0131452 116.581687,14.2339961 L116.581687,18.9393587 L115.549315,18.9393587 L115.549315,14.4629056 C115.549315,13.7380254 115.315803,13.4328127 114.357172,13.4328127 C113.816406,13.4328127 113.189609,13.6362879 112.747164,13.8524802 L112.747164,18.9393587 L111.702502,18.9393587 Z M54.0607391,37.7237175 L58.9255847,23.9107227 L61.3774669,23.9107227 L66.1255563,37.7237175 L63.6542147,37.7237175 L62.447733,34.2201299 L57.4855904,34.2201299 L56.2791087,37.7237175 L54.0607391,37.7237175 Z M59.9180132,26.8505146 L58.0499125,32.3676583 L61.8444921,32.3676583 L59.9763914,26.8505146 L59.9180132,26.8505146 Z M67.3699325,40.7239161 L67.3699325,27.3539037 L69.529924,27.3539037 L69.529924,28.2398683 L69.6077615,28.2398683 C70.2110024,27.6156659 71.2423497,27.1726836 72.5072095,27.1726836 C74.5893634,27.1726836 76.4769235,28.4210884 76.4769235,32.2267094 L76.4769235,32.4884717 C76.4769235,36.3746349 74.667201,37.9049376 71.9428874,37.9049376 C70.8337026,37.9049376 70.0942461,37.6029041 69.6077615,37.3210063 L69.6077615,40.7239161 L67.3699325,40.7239161 Z M71.6315373,36.1531438 C73.2272067,36.1531438 74.1417976,35.3074502 74.1417976,32.7905051 L74.1417976,32.3676583 C74.1417976,29.8104421 73.2855848,29.0654263 71.7093748,29.0654263 C70.7558651,29.0654263 69.9969492,29.3875953 69.6077615,29.6694932 L69.6077615,35.5490769 C69.9969492,35.8712459 70.7558651,36.1531438 71.6315373,36.1531438 Z M78.188325,40.7239161 L78.188325,27.3539037 L80.3483165,27.3539037 L80.3483165,28.2398683 L80.426154,28.2398683 C81.0293949,27.6156659 82.0607421,27.1726836 83.325602,27.1726836 C85.4077559,27.1726836 87.295316,28.4210884 87.295316,32.2267094 L87.295316,32.4884717 C87.295316,36.3746349 85.4855934,37.9049376 82.7612799,37.9049376 C81.6520951,37.9049376 80.9126386,37.6029041 80.426154,37.3210063 L80.426154,40.7239161 L78.188325,40.7239161 Z M82.4499298,36.1531438 C84.0455991,36.1531438 84.9601901,35.3074502 84.9601901,32.7905051 L84.9601901,32.3676583 C84.9601901,29.8104421 84.1039773,29.0654263 82.5277673,29.0654263 C81.5742576,29.0654263 80.8153416,29.3875953 80.426154,29.6694932 L80.426154,35.5490769 C80.8153416,35.8712459 81.5742576,36.1531438 82.4499298,36.1531438 Z M97.1397152,37.9653442 C95.3883708,37.9653442 94.0651327,37.5827686 93.1505418,37.0793796 L93.1505418,35.1262302 C94.2208078,35.6094836 95.4856677,35.9719237 96.9451214,35.9719237 C98.7353845,35.9719237 99.4943005,35.2067724 99.4943005,33.9583676 C99.4943005,32.8106407 99.0078159,32.3676583 97.5483622,31.9045404 L96.2835023,31.5421003 C94.3959422,30.9984402 93.2478387,29.951391 93.2478387,27.6156659 C93.2478387,25.2799409 94.7072924,23.6892316 97.7234967,23.6892316 C99.4748411,23.6892316 100.428351,24.0315361 101.167807,24.4342473 L101.167807,26.3672612 C100.331054,26.0048211 99.2413285,25.6826521 97.7624154,25.6826521 C96.3613399,25.6826521 95.5829646,26.2867189 95.5829646,27.3941748 C95.5829646,28.4814951 95.9721522,28.944613 97.2953902,29.3271886 L98.5407907,29.7298998 C100.642404,30.3541022 101.907264,31.2602025 101.907264,33.7167409 C101.907264,36.3343638 100.369973,37.9653442 97.1397152,37.9653442 Z M107.082435,37.8445309 C105.35055,37.8445309 104.241366,37.1196507 104.241366,35.1665013 L104.241366,29.1661041 L102.84029,29.1661041 L102.84029,27.3539037 L104.241366,27.3539037 L104.241366,24.9175008 L106.440276,24.9175008 L106.440276,27.3539037 L108.83378,27.3539037 L108.83378,29.1661041 L106.440276,29.1661041 L106.440276,34.8443323 C106.440276,35.7101614 106.751626,36.0323304 107.802433,36.0323304 C108.19162,36.0323304 108.600267,35.9719237 108.950536,35.8712459 L108.950536,37.4216841 C108.561349,37.6230397 108.016486,37.8445309 107.082435,37.8445309 Z M114.767867,37.9049376 C111.712744,37.9049376 110.019778,35.9920593 110.019778,32.750234 L110.019778,32.428065 C110.019778,29.1056975 111.965716,27.1726836 114.787327,27.1726836 C117.784072,27.1726836 119.515957,29.0654263 119.515957,32.3676583 L119.515957,32.6495562 C119.515957,35.9920593 117.570018,37.9049376 114.767867,37.9049376 Z M114.806786,36.1531438 C116.305159,36.1531438 117.180831,35.085959 117.180831,32.8509118 L117.180831,32.3475228 C117.180831,29.6493576 116.110565,28.9244774 114.748408,28.9244774 C113.211117,28.9244774 112.315985,30.0319333 112.315985,32.2669805 L112.315985,32.750234 C112.315985,35.4282636 113.405711,36.1531438 114.806786,36.1531438 Z M121.16898,37.7237175 L121.16898,27.3539037 L123.328971,27.3539037 L123.328971,28.5620373 L123.406809,28.5620373 C123.951672,27.8170216 124.983019,27.2733614 126.033826,27.2733614 C126.306257,27.2733614 126.559229,27.293497 126.656526,27.3337681 L126.656526,29.3875953 C126.403554,29.3473242 126.072744,29.3271886 125.839232,29.3271886 C124.9441,29.3271886 124.048969,29.5889509 123.406809,30.0117977 L123.406809,37.7237175 L121.16898,37.7237175 Z M132.493316,37.9049376 C129.165762,37.9049376 127.531174,35.9517882 127.531174,32.6696917 L127.531174,32.3877939 C127.531174,28.9043418 129.574409,27.1928192 132.123588,27.1928192 C135.081414,27.1928192 136.365734,28.9043418 136.365734,32.2065738 L136.365734,33.1730808 L129.827381,33.1730808 C129.963597,35.3275858 131.033863,36.0927371 132.940882,36.0927371 C134.225201,36.0927371 135.159252,35.7907037 136.034924,35.3275858 L136.034924,36.9384306 C135.353846,37.4015485 134.186283,37.9049376 132.493316,37.9049376 Z M132.084669,28.9043418 C131.053322,28.9043418 129.983056,29.4681375 129.827381,31.5823714 L134.088986,31.5823714 C134.088986,29.629222 133.388448,28.9043418 132.084669,28.9043418 Z" id="DownloadonAppStore" fill="#E2E3E4" fill-rule="nonzero"></path>
                    <g id="apple-logo" transform="translate(18.233859, 10.979860)" fill="#FFFFFF" fill-rule="nonzero">
                        <path d="M22.2707632,19.93124 C22.1968188,20.1342783 22.1251851,20.3523011 22.0427679,20.5665777 C21.3603227,22.3639542 20.3243307,23.9597908 19.0672758,25.4222664 C18.8246457,25.7069696 18.5419624,25.964701 18.2500361,26.2037019 C17.6731157,26.6787067 17.0091565,26.9656576 16.241213,26.9918803 C15.6642926,27.0098616 15.1104798,26.9079678 14.5766936,26.696688 C14.190026,26.5430981 13.8095204,26.3715269 13.417461,26.2329214 C12.145001,25.78339 10.8794733,25.8425783 9.62781017,26.3235769 C9.17644118,26.4973957 8.73123424,26.6891958 8.27139246,26.8397888 C7.73837653,27.0136077 7.18533398,27.0840343 6.62227814,26.980642 C6.13085594,26.891485 5.70105407,26.6689669 5.30206238,26.382016 C4.80678891,26.0253877 4.39085162,25.5908407 4.00187323,25.1308202 C2.16019535,22.9460974 0.923937304,20.4759222 0.326990271,17.7090563 C0.0697253565,16.5192964 -0.0535153212,15.3197967 0.0219695939,14.1038142 C0.110548831,12.6458339 0.458703745,11.257531 1.25976815,10.0063352 C2.26494993,8.43372441 3.68298798,7.40354822 5.54854373,6.97874101 C6.67080416,6.72175888 7.76225441,6.82664955 8.83213754,7.22748174 C9.39519339,7.43726307 9.95978974,7.64479675 10.5251563,7.85083199 C11.0458482,8.04113363 11.5642293,8.04113363 12.0856914,7.84708589 C12.6626119,7.63280925 13.2403025,7.41928182 13.8195337,7.2102497 C14.4133997,6.99971915 15.0172791,6.82739877 15.647347,6.77869953 C16.5901382,6.70452684 17.5098218,6.82365267 18.4048572,7.11509888 C19.6734659,7.52791858 20.7056066,8.25840715 21.4851039,9.32229821 C21.5059007,9.35151775 21.5290084,9.38373417 21.5444134,9.40695996 C19.5787246,10.7398206 18.4595452,12.5004854 18.6220689,14.8845004 C18.786133,17.2700139 20.1063488,18.8838317 22.2707632,19.93124 Z M10.7341818,5.62975701 C11.3477132,5.64339994 11.9376158,5.54448866 12.5055193,5.35553402 C15.0957135,4.49466484 16.4498823,2.20060537 16.4091432,0.446123965 C16.405884,0.304919591 16.3944771,0.163715216 16.387144,0 C16.1207101,0.03342519 15.8779049,0.0491145649 15.644877,0.0982291299 C13.7537664,0.486370622 12.2985645,1.36975064 11.3420097,2.80021235 C10.782254,3.63788854 10.471007,4.52740788 10.5663366,5.49946698 C10.5728548,5.60247114 10.6176679,5.62839271 10.7341818,5.62975701 Z" id="Shape"></path>
                    </g>
                </g>
            </g>
        </g>
    </g>
</svg>