<?xml version="1.0" encoding="utf-8"?>
<!-- Generator: Adobe Illustrator 24.1.0, SVG Export Plug-In . SVG Version: 6.00 Build 0)  -->
<svg version="1.1" id="레이어_1" xmlns="http://www.w3.org/2000/svg" xmlns:xlink="http://www.w3.org/1999/xlink" x="0px"
	 y="0px" viewBox="0 0 377.1 64.8" style="enable-background:new 0 0 377.1 64.8;" xml:space="preserve">
<style type="text/css">
	.st0{fill:#FFFFFF;}
	.st1{fill:url(#SVGID_1_);}
</style>
<path class="st0" d="M89.4,16.1h13.3c6.2-0.1,11.5,4.2,12.8,10.3c1.3,6.9-3.1,13.5-10,14.9c-0.8,0.1-1.5,0.2-2.3,0.2h-5.7v9.2h-8.1
	V16.1z M97.5,33.7h5.5c2.5,0,3.9-2,4.1-4.5c0.2-3-1.1-5.4-4-5.4h-5.6L97.5,33.7z"/>
<path class="st0" d="M122.4,16.1H144v7.5h-12.4v5.6H144V37h-12.4v6.4H144v7.4h-21.5V16.1z"/>
<path class="st0" d="M153.3,16.1h13.3c6.2-0.1,11.5,4.2,12.8,10.3c1.3,6.9-3.1,13.5-10,14.9c-0.8,0.2-1.6,0.2-2.3,0.2h-5.7v9.2h-8.1
	L153.3,16.1z M161.3,33.7h5.5c2.5,0,3.9-2,4.1-4.5c0.2-3-1.1-5.4-4-5.4h-5.6L161.3,33.7z"/>
<path class="st0" d="M187.3,16.1h13.3c6.2-0.1,11.5,4.2,12.8,10.3c1.3,6.9-3.1,13.5-10,14.9c-0.8,0.1-1.5,0.2-2.3,0.2h-5.7v9.2h-8.1
	V16.1z M195.4,33.7h5.4c2.5,0,3.9-2,4.1-4.5c0.2-3-1.1-5.4-4-5.4h-5.6V33.7z"/>
<path class="st0" d="M220.3,16.1h21.5v7.5h-12.4v5.6h12.4V37h-12.4v6.4h12.4v7.4h-21.5V16.1z"/>
<path class="st0" d="M271.2,50.7l-5.3-9.2h-6.6v9.2h-8.1V16.1h13.2c6.2-0.1,11.6,4.3,12.9,10.4c0.8,4.3-0.7,8.7-3.9,11.6l7.3,12.5
	H271.2z M259.2,33.7h5.5c2.5,0,3.9-2,4.1-4.5c0.2-3-1.1-5.4-4-5.4h-5.6L259.2,33.7z"/>
<path class="st0" d="M300.9,16.2c9.5-1,18,5.9,19,15.4c1,9.5-5.9,18-15.4,19c-9.5,1-18-5.9-19-15.4c-0.1-1.2-0.1-2.4,0-3.6
	C286.3,23.5,292.7,17.1,300.9,16.2z M304.2,25.3c-4.5-0.9-8.8,2.1-9.7,6.5c-0.9,4.5,2.1,8.8,6.5,9.7s8.8-2.1,9.7-6.5
	c0.2-1.1,0.2-2.2,0-3.3C310,28.5,307.4,26,304.2,25.3z"/>
<path class="st0" d="M337.1,35.4v15.4h-9.1V16.1l20,16.3V16.1h9.1v34.6L337.1,35.4z"/>
<path class="st0" d="M367,16.1h10.1v34.6H367V16.1z"/>
<linearGradient id="SVGID_1_" gradientUnits="userSpaceOnUse" x1="9.4864" y1="10.6614" x2="55.2736" y2="56.4586" gradientTransform="matrix(1 0 0 -1 0 65.94)">
	<stop  offset="0" style="stop-color:#F2772C"/>
	<stop  offset="1" style="stop-color:#FF5854"/>
</linearGradient>
<circle class="st1" cx="32.4" cy="32.4" r="32.4"/>
<path class="st0" d="M35.2,20.2c-4.6,0.1-8.5,3.6-8.8,8.3c0,0.1,0,0.9,0,1.1c0,5.7-0.1,7.9-6.2,12.3c-0.8,0.6-1,1.7-0.4,2.5
	c0.1,0.2,0.2,0.3,0.4,0.4c2.1,1.2,4.5,1.8,7,1.9c4.2,0,8.3-1.5,11.4-4.3c3.8-3.3,5.9-8.2,5.7-13.2c0.1-4.8-3.7-8.8-8.4-8.9
	C35.6,20.2,35.4,20.2,35.2,20.2z"/>
</svg>
